<svg width="413.8800048828125px" height="112.439990234375px" xmlns="http://www.w3.org/2000/svg" viewBox="43.05999755859375 18.7800048828125 413.8800048828125 112.439990234375" style="background: rgba(248, 244, 244, 0);" preserveAspectRatio="xMidYMid"><defs><filter id="editing-extrusion" x="-100%" y="-100%" width="300%" height="300%"><feFlood result="color1" flood-color="#eaeaea"></feFlood><feConvolveMatrix order="8,8" divisor="1" kernelMatrix="1 0 0 0 0 0 0 0 0 1 0 0 0 0 0 0 0 0 1 0 0 0 0 0 0 0 0 1 0 0 0 0 0 0 0 0 1 0 0 0 0 0 0 0 0 1 0 0 0 0 0 0 0 0 1 0 0 0 0 0 0 0 0 1" in="SourceAlpha" result="extrude"></feConvolveMatrix><feComposite in="color1" in2="extrude" result="comp-extrude" operator="in"></feComposite><feOffset dx="4" dy="4" in="comp-extrude" result="offset-extrude"></feOffset><feMerge><feMergeNode in="offset-extrude"></feMergeNode><feMergeNode in="SourceGraphic"></feMergeNode></feMerge></filter></defs><g filter="url(#editing-extrusion)"><g transform="translate(110.83176565170288, 100.76000022888184)"><path d="M-6.10 7.73L-6.10 7.73L-6.10 7.73Q-3.25 7.39-1.46 3.70L-1.46 3.70L-1.46 3.70Q0.39-0.06 2.07-8.68L2.07-8.68L7.50-36.96L19.66-36.96L14.22-8.68L14.22-8.68Q12.15 2.30 8.74 6.61L8.74 6.61L8.74 6.61Q6.94 8.85 4.68 9.74L4.68 9.74L4.68 9.74Q2.41 10.64-0.06 10.64L-0.06 10.64L-0.06 10.64Q-2.52 10.64-4.12 9.74L-4.12 9.74L-4.12 9.74Q-5.71 8.85-6.10 7.73ZM38.86-2.35L38.86-2.35L38.86-2.35Q36.18 1.12 29.51 1.12L29.51 1.12L29.51 1.12Q26.04 1.12 23.52-0.98L23.52-0.98L23.52-0.98Q21-3.08 21-6.10L21-6.10L21-6.10Q21-7.78 21.17-8.62L21.17-8.62L24.92-28.56L36.29-29.68L32.20-8.06L32.20-8.06Q31.98-6.83 31.98-6.10L31.98-6.10L31.98-6.10Q31.98-2.86 33.94-2.86L33.94-2.86L33.94-2.86Q36.12-2.86 37.69-5.82L37.69-5.82L37.69-5.82Q38.19-6.78 38.42-8.01L38.42-8.01L42.39-28.56L53.42-29.68L49.28-7.84L49.28-7.84Q49.11-7 49.11-6.10L49.11-6.10L49.11-6.10Q49.11-5.21 49.62-4.23L49.62-4.23L49.62-4.23Q50.12-3.25 51.74-3.02L51.74-3.02L51.74-3.02Q51.41-1.68 50.23-0.78L50.23-0.78L50.23-0.78Q47.77 1.12 45.11 1.12L45.11 1.12L45.11 1.12Q42.45 1.12 40.88 0.17L40.88 0.17L40.88 0.17Q39.31-0.78 38.86-2.35ZM69.83-3.08L69.83-3.08L69.83-3.08Q68.10 1.12 62.55 1.12L62.55 1.12L62.55 1.12Q59.75 1.12 57.96-0.84L57.96-0.84L57.96-0.84Q56.50-2.46 56.50-4.31L56.50-4.31L56.50-4.31Q56.50-8.51 58.46-17.70L58.46-17.70L62.55-39.20L73.92-40.32L68.49-11.98L68.49-11.98Q67.54-7.84 67.54-6.38L67.54-6.38L67.54-6.38Q67.54-3.19 69.83-3.08ZM88.03-3.08L88.03-3.08L88.03-3.08Q86.30 1.12 80.75 1.12L80.75 1.12L80.75 1.12Q77.90 1.12 76.10-0.84L76.10-0.84L76.10-0.84Q74.59-2.58 74.59-4.31L74.59-4.31L74.59-4.31Q74.59-8.85 76.66-17.70L76.66-17.70L78.74-28.56L90.10-29.68L86.69-11.98L86.69-11.98Q85.74-7.84 85.74-6.38L85.74-6.38L85.74-6.38Q85.74-3.19 88.03-3.08ZM79.74-36.34L79.74-36.34L79.74-36.34Q79.74-38.53 81.56-39.70L81.56-39.70L81.56-39.70Q83.38-40.88 86.02-40.88L86.02-40.88L86.02-40.88Q88.65-40.88 90.24-39.70L90.24-39.70L90.24-39.70Q91.84-38.53 91.84-36.34L91.84-36.34L91.84-36.34Q91.84-34.16 90.08-33.04L90.08-33.04L90.08-33.04Q88.31-31.92 85.68-31.92L85.68-31.92L85.68-31.92Q83.05-31.92 81.40-33.04L81.40-33.04L81.40-33.04Q79.74-34.16 79.74-36.34ZM94.53-34.89L94.53-34.89L94.53-34.89Q97.16-37.97 101.53-37.97L101.53-37.97L101.53-37.97Q105-37.97 106.85-36.62L106.85-36.62L106.85-36.62Q108.70-35.22 109.93-31.81L109.93-31.81L112.28-25.14L120.74-36.90L128.30-36.90L114.58-18.70L118.10-8.74L118.10-8.74Q118.89-6.50 120.26-4.84L120.26-4.84L120.26-4.84Q121.63-3.19 122.86-2.91L122.86-2.91L122.86-2.91Q121.74-0.78 119.81 0.17L119.81 0.17L119.81 0.17Q117.88 1.12 115.05 1.12L115.05 1.12L115.05 1.12Q112.22 1.12 110.24-0.73L110.24-0.73L110.24-0.73Q108.25-2.58 106.74-6.72L106.74-6.72L105.11-11.20L96.66 0L89.77 0L102.65-17.86L98.62-29.12L98.62-29.12Q97.72-31.58 96.82-32.84L96.82-32.84L96.82-32.84Q95.93-34.10 94.53-34.89ZM150.36 1.12L150.36 1.12L150.36 1.12Q143.58 1.12 143.58-4.14L143.58-4.14L143.58-4.14Q143.64-5.60 144.09-8.06L144.09-8.06L145.10-13.22L145.10-13.22Q146.61-20.50 146.61-22.12L146.61-22.12L146.61-22.12Q146.61-25.37 144.70-25.37L144.70-25.37L144.70-25.37Q141.51-25.37 139.83-17.02L139.83-17.02L136.53 0L125.27 1.12L131.10-28.62L140.28-29.68L139.38-24.19L139.38-24.19Q142.02-29.68 150.08-29.68L150.08-29.68L150.08-29.68Q154-29.68 155.65-28.03L155.65-28.03L155.65-28.03Q157.30-26.38 157.30-22.68L157.30-22.68L157.30-22.68Q157.30-19.21 155.51-11.09L155.51-11.09L155.51-11.09Q154.67-7.45 154.67-6.08L154.67-6.08L154.67-6.08Q154.67-4.70 155.43-3.92L155.43-3.92L155.43-3.92Q156.18-3.14 157.30-3.02L157.30-3.02L157.30-3.02Q156.74-1.12 154.81 0L154.81 0L154.81 0Q152.88 1.12 150.36 1.12ZM191.02-11.59L191.02-11.59L191.02-11.59Q192.47-10.53 192.47-8.26L192.47-8.26L192.47-8.26Q192.47-5.99 191.49-4.40L191.49-4.40L191.49-4.40Q190.51-2.80 188.61-1.57L188.61-1.57L188.61-1.57Q184.52 1.06 177.38 1.06L177.38 1.06L177.38 1.06Q170.24 1.06 166.35-2.66L166.35-2.66L166.35-2.66Q162.46-6.38 162.46-12.99L162.46-12.99L162.46-12.99Q162.46-22.34 167.33-29.46L167.33-29.46L167.33-29.46Q171.02-34.72 177.63-36.96L177.63-36.96L177.63-36.96Q181.05-38.08 184.41-38.08L184.41-38.08L184.41-38.08Q187.77-38.08 189.84-37.63L189.84-37.63L189.84-37.63Q191.91-37.18 193.48-36.29L193.48-36.29L193.48-36.29Q196.90-34.33 196.90-31.19L196.90-31.19L196.90-31.19Q196.90-28.34 194.21-26.21L194.21-26.21L194.21-26.21Q191.74-24.30 189.73-24.30L189.73-24.30L189.73-24.30Q187.71-24.30 186.87-24.58L186.87-24.58L186.87-24.58Q187.10-26.60 187.10-27.92L187.10-27.92L187.10-27.92Q187.10-29.23 187.04-30.18L187.04-30.18L187.04-30.18Q186.98-31.14 186.70-32.03L186.70-32.03L186.70-32.03Q186.14-34.10 184.44-34.10L184.44-34.10L184.44-34.10Q182.73-34.10 181.02-32.51L181.02-32.51L181.02-32.51Q179.31-30.91 177.86-28.22L177.86-28.22L177.86-28.22Q174.55-22.12 174.55-14.90L174.55-14.90L174.55-14.90Q174.55-11.42 176.51-9.44L176.51-9.44L176.51-9.44Q178.47-7.45 182.67-7.45L182.67-7.45L182.67-7.45Q185.81-7.45 188.78-9.52L188.78-9.52L188.78-9.52Q190.06-10.42 191.02-11.59ZM198.86-34.89L198.86-34.89L198.86-34.89Q201.49-37.97 205.86-37.97L205.86-37.97L205.86-37.97Q209.33-37.97 211.18-36.62L211.18-36.62L211.18-36.62Q213.02-35.22 214.26-31.81L214.26-31.81L216.61-25.14L225.06-36.90L232.62-36.90L218.90-18.70L222.43-8.74L222.43-8.74Q223.22-6.50 224.59-4.84L224.59-4.84L224.59-4.84Q225.96-3.19 227.19-2.91L227.19-2.91L227.19-2.91Q226.07-0.78 224.14 0.17L224.14 0.17L224.14 0.17Q222.21 1.12 219.38 1.12L219.38 1.12L219.38 1.12Q216.55 1.12 214.56-0.73L214.56-0.73L214.56-0.73Q212.58-2.58 211.06-6.72L211.06-6.72L209.44-11.20L200.98 0L194.10 0L206.98-17.86L202.94-29.12L202.94-29.12Q202.05-31.58 201.15-32.84L201.15-32.84L201.15-32.84Q200.26-34.10 198.86-34.89ZM271.32 1.12L271.32 1.12L271.32 1.12Q264.54 1.12 264.54-4.14L264.54-4.14L264.54-4.14Q264.54-6.44 265.52-10.89L265.52-10.89L265.52-10.89Q266.50-15.34 266.84-17.14L266.84-17.14L266.84-17.14Q267.62-21.22 267.62-22.51L267.62-22.51L267.62-22.51Q267.62-25.37 265.50-25.37L265.50-25.37L265.50-25.37Q264.10-25.37 262.75-23.44L262.75-23.44L262.75-23.44Q261.41-21.50 260.79-17.64L260.79-17.64L257.32 0L246.40 1.12L249.42-14.11L249.42-14.11Q249.93-16.63 250.38-19.49L250.38-19.49L250.38-19.49Q250.82-22.34 250.82-22.79L250.82-22.79L250.82-22.79Q250.82-25.37 248.92-25.37L248.92-25.37L248.92-25.37Q247.63-25.37 246.23-23.46L246.23-23.46L246.23-23.46Q244.83-21.56 244.05-17.64L244.05-17.64L240.63 0L229.60 1.12L235.48-28.56L244.61-29.68L243.66-24.02L243.66-24.02Q245.11-27.05 247.80-28.36L247.80-28.36L247.80-28.36Q250.49-29.68 254.69-29.68L254.69-29.68L254.69-29.68Q257.10-29.68 258.66-28.50L258.66-28.50L258.66-28.50Q260.23-27.33 260.74-25.42L260.74-25.42L260.74-25.42Q261.69-27.38 264.12-28.53L264.12-28.53L264.12-28.53Q266.56-29.68 269.56-29.68L269.56-29.68L269.56-29.68Q272.55-29.68 274.04-29.04L274.04-29.04L274.04-29.04Q275.52-28.39 276.42-27.33L276.42-27.33L276.42-27.33Q277.93-25.37 277.93-21.78L277.93-21.78L277.93-21.78Q277.93-18.26 276.42-10.92L276.42-10.92L276.42-10.92Q275.63-7.34 275.63-6.02L275.63-6.02L275.63-6.02Q275.63-4.70 276.39-3.92L276.39-3.92L276.39-3.92Q277.14-3.14 278.26-3.02L278.26-3.02L278.26-3.02Q277.70-1.12 275.77 0L275.77 0L275.77 0Q273.84 1.12 271.32 1.12Z" fill="#76c2af"></path></g></g><style>text {
  font-size: 64px;
  font-family: Arial Black;
  dominant-baseline: central;
  text-anchor: middle;
}</style></svg>