<svg width="366.160009765625px" height="126.839990234375px" xmlns="http://www.w3.org/2000/svg" viewBox="66.91999511718751 11.580004882812503 366.160009765625 126.839990234375" style="background: rgba(89, 104, 134, 0);" preserveAspectRatio="xMidYMid"><defs><filter id="editing-hover" x="-100%" y="-100%" width="300%" height="300%"><feFlood flood-color="#f3f3f3" result="flood"></feFlood><feComposite operator="in" in2="SourceAlpha" in="flood" result="shadow"></feComposite><feOffset dx="-4" dy="-4" in="SourceGraphic" result="offset-1"></feOffset><feOffset dx="4" dy="4" in="shadow" result="offset-2"></feOffset><feMerge><feMergeNode in="offset-2"></feMergeNode><feMergeNode in="offset-1"></feMergeNode></feMerge></filter></defs><g filter="url(#editing-hover)"><g transform="translate(122.31998598575592, 98.90499877929688)"><path d="M0.90 0L0.90 0Q3.01 0 4.58-1.73L4.58-1.73L4.58-1.73Q6.14-3.46 6.14-7.30L6.14-7.30L6.14-41.54L1.86-41.66L1.86-44.80L9.79-44.80L9.79-7.55L9.79-7.55Q9.79-2.82 7.65-0.22L7.65-0.22L7.65-0.22Q5.50 2.37 1.73 2.37L1.73 2.37L0.90 0ZM35.20 0L35.46-3.26L35.46-3.26Q33.92-1.34 31.58-0.32L31.58-0.32L31.58-0.32Q29.25 0.70 26.88 0.70L26.88 0.70L26.88 0.70Q14.85 0.70 14.85-11.01L14.85-11.01L14.85-32.06L18.43-32.06L18.43-10.56L18.43-10.56Q18.43-6.46 20.70-4.48L20.70-4.48L20.70-4.48Q22.98-2.50 26.88-2.50L26.88-2.50L26.88-2.50Q30.72-2.50 32.93-4.45L32.93-4.45L32.93-4.45Q35.14-6.40 35.14-10.56L35.14-10.56L35.14-32.06L38.72-32.06L38.72 0L35.20 0ZM46.14 0L46.14-44.80L49.73-44.80L49.73 0L46.14 0ZM62.02-41.15L62.02-41.15Q61.18-41.15 60.51-41.82L60.51-41.82L60.51-41.82Q59.84-42.50 59.84-43.33L59.84-43.33L59.84-43.33Q59.84-44.16 60.48-44.80L60.48-44.80L60.48-44.80Q61.12-45.44 62.02-45.44L62.02-45.44L62.02-45.44Q62.91-45.44 63.52-44.83L63.52-44.83L63.52-44.83Q64.13-44.22 64.13-43.33L64.13-43.33L64.13-43.33Q64.13-42.43 63.49-41.79L63.49-41.79L63.49-41.79Q62.85-41.15 62.02-41.15L62.02-41.15ZM60.16 0L60.16-32.06L63.74-32.06L63.74 0L60.16 0ZM102.27 0L90.50-18.82L78.66 0L74.24 0L88.38-22.53L75.46-44.80L79.49-44.80L90.50-25.98L101.63-44.80L105.66-44.80L92.67-22.53L106.69 0L102.27 0ZM133.63 0L133.63-21.95L133.63-21.95Q133.63-25.86 131.36-27.62L131.36-27.62L131.36-27.62Q129.09-29.38 125.50-29.38L125.50-29.38L125.50-29.38Q123.33-29.38 121.09-28.77L121.09-28.77L121.09-28.77Q118.85-28.16 117.12-27.20L117.12-27.20L117.12 0L113.54 0L113.54-32.06L117.12-32.06L116.86-29.89L116.86-29.89Q118.40-31.23 120.77-31.90L120.77-31.90L120.77-31.90Q123.14-32.58 125.70-32.58L125.70-32.58L125.70-32.58Q129.22-32.58 131.71-31.42L131.71-31.42L131.71-31.42Q134.27-30.27 135.71-27.97L135.71-27.97L135.71-27.97Q137.15-25.66 137.15-22.14L137.15-22.14L137.15 0L133.63 0ZM168.77-1.47L168.77-1.47Q163.07 0.64 158.14 0.64L158.14 0.64L158.14 0.64Q152.58 0.64 149.12-2.30L149.12-2.30L149.12-2.30Q145.66-5.25 145.66-11.71L145.66-11.71L145.66-32.26L145.66-32.26Q145.66-37.12 147.04-39.62L147.04-39.62L147.04-39.62Q148.42-42.11 151.23-43.84L151.23-43.84L151.23-43.84Q154.05-45.44 158.14-45.44L158.14-45.44L158.14-45.44Q163.14-45.44 167.17-43.33L167.17-43.33L166.14-40.90L166.14-40.90Q162.50-42.24 159.23-42.24L159.23-42.24L159.23-42.24Q155.33-42.24 152.29-40.32L152.29-40.32L152.29-40.32Q149.25-38.40 149.25-32.83L149.25-32.83L149.25-11.84L149.25-11.84Q149.25-7.42 151.55-5.02L151.55-5.02L151.55-5.02Q153.86-2.62 158.46-2.62L158.46-2.62L158.46-2.62Q162.50-2.62 168-4.48L168-4.48L168.77-1.47ZM202.37 0L190.59-18.82L178.75 0L174.34 0L188.48-22.53L175.55-44.80L179.58-44.80L190.59-25.98L201.73-44.80L205.76-44.80L192.77-22.53L206.78 0L202.37 0ZM250.94 0L250.94-21.95L250.94-21.95Q250.94-25.79 248.93-27.58L248.93-27.58L248.93-27.58Q246.91-29.38 243.71-29.38L243.71-29.38L243.71-29.38Q241.22-29.38 238.14-28.29L238.14-28.29L235.78-27.14L235.78-27.14Q236.86-24.96 236.86-22.14L236.86-22.14L236.86 0L233.34 0L233.34-21.95L233.34-21.95Q233.34-25.86 231.33-27.62L231.33-27.62L231.33-27.62Q229.31-29.38 226.05-29.38L226.05-29.38L226.05-29.38Q224.06-29.38 221.95-28.77L221.95-28.77L221.95-28.77Q219.84-28.16 218.11-27.20L218.11-27.20L218.11 0L214.53 0L214.53-32.06L218.11-32.06L217.79-30.02L217.79-30.02Q222.02-32.51 226.43-32.51L226.43-32.51L226.43-32.51Q228.74-32.51 230.75-31.74L230.75-31.74L230.75-31.74Q232.77-30.98 234.18-29.50L234.18-29.50L234.18-29.50Q235.07-30.02 236.86-30.91L236.86-30.91L236.86-30.91Q240.64-32.64 244.16-32.64L244.16-32.64L244.16-32.64Q248.70-32.64 251.58-29.86L251.58-29.86L251.58-29.86Q254.46-27.07 254.46-22.14L254.46-22.14L254.46 0L250.94 0Z" fill="#76c2af"></path></g></g><style>text {
  font-size: 64px;
  font-family: Arial Black;
  dominant-baseline: central;
  text-anchor: middle;
}</style></svg>